<svg width="24" height="24" viewBox="0 0 24 24" fill="none" xmlns="http://www.w3.org/2000/svg">
<path d="M16.8441 19.6658C17.0283 19.8715 17.3444 19.889 17.5502 19.7048C17.7559 19.5206 17.7733 19.2045 17.5891 18.9987L16.8441 19.6658ZM6.4107 18.9987C6.2265 19.2045 6.24394 19.5206 6.44967 19.7048C6.6554 19.889 6.9715 19.8715 7.1557 19.6658L6.4107 18.9987ZM12 20.5C7.30558 20.5 3.5 16.6944 3.5 12H2.5C2.5 17.2467 6.75329 21.5 12 21.5V20.5ZM3.5 12C3.5 7.30558 7.30558 3.5 12 3.5V2.5C6.75329 2.5 2.5 6.75329 2.5 12H3.5ZM12 3.5C16.6944 3.5 20.5 7.30558 20.5 12H21.5C21.5 6.75329 17.2467 2.5 12 2.5V3.5ZM20.5 12C20.5 16.6944 16.6944 20.5 12 20.5V21.5C17.2467 21.5 21.5 17.2467 21.5 12H20.5ZM17.5891 18.9987C16.2166 17.4658 14.2207 16.5 12 16.5V17.5C13.9246 17.5 15.6533 18.3358 16.8441 19.6658L17.5891 18.9987ZM12 16.5C9.77926 16.5 7.78327 17.4658 6.4107 18.9987L7.1557 19.6658C8.34658 18.3358 10.0754 17.5 12 17.5V16.5ZM12 13.5C10.6193 13.5 9.5 12.3807 9.5 11H8.5C8.5 12.933 10.067 14.5 12 14.5V13.5ZM9.5 11C9.5 9.61929 10.6193 8.5 12 8.5V7.5C10.067 7.5 8.5 9.067 8.5 11H9.5ZM12 8.5C13.3807 8.5 14.5 9.61929 14.5 11H15.5C15.5 9.067 13.933 7.5 12 7.5V8.5ZM14.5 11C14.5 12.3807 13.3807 13.5 12 13.5V14.5C13.933 14.5 15.5 12.933 15.5 11H14.5Z" fill="#ADAEAE"/>
</svg>
