<svg width="200" height="209" viewBox="0 0 200 209" fill="none" xmlns="http://www.w3.org/2000/svg">
<line y1="104" x2="200" y2="104" stroke="white" stroke-width="10"/>
<path d="M56.3983 41.169C56.1852 38.8253 55.237 37.0035 53.5538 35.7038C51.8919 34.3828 49.5162 33.7223 46.4267 33.7223C44.3812 33.7223 42.6767 33.9886 41.313 34.5213C39.9494 35.054 38.9267 35.7891 38.2449 36.7266C37.563 37.6428 37.2115 38.6974 37.1902 39.8906C37.1476 40.8707 37.3393 41.7337 37.7654 42.4794C38.2129 43.2251 38.8521 43.8857 39.6831 44.4609C40.5353 45.0149 41.5581 45.505 42.7512 45.9311C43.9444 46.3572 45.2868 46.7301 46.7782 47.0497L52.4032 48.3281C55.6419 49.0312 58.497 49.9688 60.9686 51.1406C63.4615 52.3125 65.5495 53.7081 67.2328 55.3274C68.9373 56.9467 70.2264 58.8111 71.1 60.9205C71.9735 63.0298 72.421 65.3949 72.4423 68.0156C72.421 72.1491 71.377 75.6967 69.3102 78.6584C67.2434 81.62 64.2711 83.8892 60.3933 85.4659C56.5368 87.0426 51.8812 87.831 46.4267 87.831C40.9508 87.831 36.1781 87.0107 32.1085 85.37C28.0389 83.7294 24.8748 81.2365 22.6163 77.8913C20.3578 74.5462 19.1966 70.3168 19.1326 65.2031H34.2818C34.4096 67.3125 34.9743 69.0703 35.9757 70.4766C36.9771 71.8828 38.3514 72.9482 40.0985 73.6726C41.867 74.397 43.9125 74.7592 46.2349 74.7592C48.3656 74.7592 50.1767 74.4716 51.6681 73.8963C53.1809 73.321 54.3422 72.522 55.1518 71.4993C55.9615 70.4766 56.377 69.3047 56.3983 67.9837C56.377 66.7479 55.9934 65.6932 55.2477 64.8196C54.502 63.9247 53.3514 63.1577 51.796 62.5185C50.2619 61.858 48.3017 61.2507 45.9153 60.6967L39.0758 59.0987C33.4082 57.799 28.9444 55.7003 25.6845 52.8026C22.4245 49.8835 20.8052 45.9418 20.8265 40.9773C20.8052 36.929 21.8919 33.3814 24.0865 30.3345C26.2811 27.2876 29.3173 24.9119 33.1951 23.2074C37.073 21.5028 41.4941 20.6506 46.4586 20.6506C51.5297 20.6506 55.9295 21.5135 59.6582 23.2393C63.4082 24.9439 66.3166 27.3409 68.3833 30.4304C70.4501 33.5199 71.5048 37.0994 71.5474 41.169H56.3983ZM103.38 87.9268C98.2449 87.9268 93.813 86.9148 90.0843 84.8906C86.377 82.8452 83.5218 79.9368 81.519 76.1655C79.5375 72.3729 78.5467 67.8665 78.5467 62.6463C78.5467 57.5753 79.5481 53.1435 81.551 49.3509C83.5538 45.5369 86.377 42.5753 90.0204 40.4659C93.6639 38.3352 97.9572 37.2699 102.9 37.2699C106.395 37.2699 109.591 37.8132 112.488 38.8999C115.386 39.9865 117.89 41.5952 119.999 43.7259C122.108 45.8565 123.749 48.4879 124.921 51.62C126.093 54.7308 126.679 58.2997 126.679 62.3267V66.2259H84.0119V57.1491H112.137C112.116 55.4872 111.721 54.0064 110.954 52.7067C110.187 51.407 109.133 50.3949 107.79 49.6705C106.469 48.9247 104.946 48.5518 103.22 48.5518C101.473 48.5518 99.9068 48.946 98.5218 49.7344C97.1369 50.5014 96.0396 51.5561 95.2299 52.8984C94.4203 54.2195 93.9941 55.7216 93.9515 57.4048V66.6413C93.9515 68.6442 94.3457 70.402 95.1341 71.9148C95.9224 73.4062 97.041 74.5675 98.4899 75.3984C99.9387 76.2294 101.665 76.6449 103.667 76.6449C105.052 76.6449 106.309 76.4531 107.439 76.0696C108.568 75.6861 109.537 75.1214 110.347 74.3757C111.157 73.63 111.764 72.7138 112.169 71.6271L126.519 72.0426C125.922 75.2599 124.612 78.0618 122.588 80.4482C120.585 82.8132 117.954 84.6562 114.694 85.9773C111.434 87.277 107.662 87.9268 103.38 87.9268ZM157.608 87.9268C152.473 87.9268 148.042 86.9148 144.313 84.8906C140.605 82.8452 137.75 79.9368 135.748 76.1655C133.766 72.3729 132.775 67.8665 132.775 62.6463C132.775 57.5753 133.777 53.1435 135.779 49.3509C137.782 45.5369 140.605 42.5753 144.249 40.4659C147.892 38.3352 152.186 37.2699 157.129 37.2699C160.623 37.2699 163.819 37.8132 166.717 38.8999C169.615 39.9865 172.118 41.5952 174.228 43.7259C176.337 45.8565 177.978 48.4879 179.15 51.62C180.321 54.7308 180.907 58.2997 180.907 62.3267V66.2259H138.24V57.1491H166.365C166.344 55.4872 165.95 54.0064 165.183 52.7067C164.416 51.407 163.361 50.3949 162.019 49.6705C160.698 48.9247 159.174 48.5518 157.449 48.5518C155.701 48.5518 154.135 48.946 152.75 49.7344C151.365 50.5014 150.268 51.5561 149.458 52.8984C148.649 54.2195 148.223 55.7216 148.18 57.4048V66.6413C148.18 68.6442 148.574 70.402 149.363 71.9148C150.151 73.4062 151.27 74.5675 152.718 75.3984C154.167 76.2294 155.893 76.6449 157.896 76.6449C159.281 76.6449 160.538 76.4531 161.667 76.0696C162.797 75.6861 163.766 75.1214 164.576 74.3757C165.385 73.63 165.993 72.7138 166.397 71.6271L180.748 72.0426C180.151 75.2599 178.841 78.0618 176.816 80.4482C174.814 82.8132 172.182 84.6562 168.922 85.9773C165.662 87.277 161.891 87.9268 157.608 87.9268Z" fill="white"/>
<line y1="-5" x2="110" y2="-5" transform="matrix(0.642788 0.766044 -0.811527 0.584315 100 109)" stroke="white" stroke-width="10"/>
<line y1="-5" x2="110" y2="-5" transform="matrix(0.642788 -0.766044 0.811527 0.584315 29 193.265)" stroke="white" stroke-width="10"/>
<line x1="100" y1="209" x2="100" y2="99" stroke="white" stroke-width="10"/>
</svg>
