<svg width="24" height="24" viewBox="0 0 24 24" fill="none" xmlns="http://www.w3.org/2000/svg">
<path d="M6.35355 11.6464C6.15829 11.4512 5.84171 11.4512 5.64645 11.6464C5.45118 11.8417 5.45118 12.1583 5.64645 12.3536L6.35355 11.6464ZM10.2426 16.2426L9.88909 16.5962C9.98286 16.69 10.11 16.7426 10.2426 16.7426C10.3753 16.7426 10.5024 16.69 10.5962 16.5962L10.2426 16.2426ZM19.081 8.11087C19.2763 7.9156 19.2763 7.59902 19.081 7.40376C18.8857 7.2085 18.5692 7.20851 18.3739 7.40378L19.081 8.11087ZM5.64645 12.3536L9.88909 16.5962L10.5962 15.8891L6.35355 11.6464L5.64645 12.3536ZM10.5962 16.5962L19.081 8.11087L18.3739 7.40378L9.88908 15.8891L10.5962 16.5962Z" fill="#ADAEAE"/>
</svg>
